<?xml version="1.0" encoding="UTF-8"?>
<svg version="1.1" xmlns="http://www.w3.org/2000/svg" width="64" height="23">
<path d="M0 0 C1.65 0 3.3 0 5 0 C4.01 4.29 3.02 8.58 2 13 C5.96 13 9.92 13 14 13 C14.12375 11.96875 14.2475 10.9375 14.375 9.875 C14.93889814 6.37883154 15.78682059 3.31602373 17 0 C18.32 0 19.64 0 21 0 C19.7 14.3 19.7 14.3 16 18 C14.58429877 18.08651611 13.164405 18.10704904 11.74609375 18.09765625 C10.89208984 18.09443359 10.03808594 18.09121094 9.15820312 18.08789062 C8.26037109 18.07951172 7.36253906 18.07113281 6.4375 18.0625 C5.53580078 18.05798828 4.63410156 18.05347656 3.70507812 18.04882812 C1.46998686 18.03700225 -0.76497437 18.0205222 -3 18 C-4.31030334 13.73845269 -3.36370213 11.0084797 -2.0625 6.75 C-1.68222656 5.48671875 -1.30195312 4.2234375 -0.91015625 2.921875 C-0.60980469 1.95765625 -0.30945313 0.9934375 0 0 Z " fill="#65666A" transform="translate(5,0)"/>
<path d="M0 0 C6.93 0 13.86 0 21 0 C20 9 20 9 18 11 C15.25514407 11.14507695 12.61519457 11.18652423 9.875 11.125 C9.12089844 11.11597656 8.36679687 11.10695313 7.58984375 11.09765625 C5.72642746 11.0740687 3.86317407 11.03819719 2 11 C1.34 13.31 0.68 15.62 0 18 C-1.32 18 -2.64 18 -4 18 C-3.69106068 16.3743193 -3.3777305 14.74947252 -3.0625 13.125 C-2.80146484 11.76761719 -2.80146484 11.76761719 -2.53515625 10.3828125 C-2 8 -2 8 -1 6 C4.61 6.33 10.22 6.66 16 7 C16 6.01 16 5.02 16 4 C10.72 4 5.44 4 0 4 C0 2.68 0 1.36 0 0 Z " fill="#65676B" transform="translate(27,0)"/>
<path d="M0 0 C1.65 0 3.3 0 5 0 C6.65753923 2.85096748 7.95426792 5.1082245 8.125 8.4375 C6.38238131 12.40679812 3.44410335 15.39060292 0 18 C-0.99 18 -1.98 18 -3 18 C-4.63129887 13.93714243 -3.29968777 10.79897816 -2.0625 6.75 C-1.68222656 5.48671875 -1.30195312 4.2234375 -0.91015625 2.921875 C-0.60980469 1.95765625 -0.30945312 0.9934375 0 0 Z " fill="#E4651C" transform="translate(56,0)"/>
<path d="M0 0 C7.26 0 14.52 0 22 0 C21.67 1.32 21.34 2.64 21 4 C14.07 4 7.14 4 0 4 C0 2.68 0 1.36 0 0 Z " fill="#686868" transform="translate(39,19)"/>
<path d="M0 0 C1.32 0 2.64 0 4 0 C3.41632611 6.30367803 1.95928381 11.98660063 0 18 C-1.32 18 -2.64 18 -4 18 C-3.48914188 11.56318772 -2.27057103 6.04057576 0 0 Z " fill="#65676C" transform="translate(50,0)"/>
<path d="M0 0 C6.6 0 13.2 0 20 0 C20 1.32 20 2.64 20 4 C13.07 4 6.14 4 -1 4 C-0.67 2.68 -0.34 1.36 0 0 Z " fill="#696A6A" transform="translate(18,19)"/>
<path d="M0 0 C5.28 0 10.56 0 16 0 C16 1.32 16 2.64 16 4 C10.72 4 5.44 4 0 4 C0 2.68 0 1.36 0 0 Z " fill="#686969" transform="translate(0,19)"/>
<path d="M0 0 C0.66 0 1.32 0 2 0 C3.65753923 2.85096748 4.95426792 5.1082245 5.125 8.4375 C3.36049231 12.4566564 0.21731379 15.0850969 -3 18 C-3.65625 16.13671875 -3.65625 16.13671875 -4 14 C-3.175 13.278125 -2.35 12.55625 -1.5 11.8125 C1.22664516 9.33703882 1.22664516 9.33703882 1.11328125 6.6796875 C0.84059156 4.42025864 0.48896494 2.2221278 0 0 Z " fill="#2A8038" transform="translate(59,0)"/>
</svg>
