<svg width="1940" height="1630" viewBox="0 0 1940 1630" fill="none" xmlns="http://www.w3.org/2000/svg">
<path d="M1396.98 819.102C1464.91 1055.04 1308.25 1329.5 1196.95 1485.34C1370.26 1444.21 1522.82 1356.91 1631.49 1236.68C1740.16 1116.45 1799.01 969.846 1799.12 819.102H1396.98Z" fill="#0170C2"/>
<path d="M467.106 1370.09C449.108 1247.6 485.107 1123.83 568.356 1021.96C616.31 961.558 644.052 891.513 648.702 819.102H140.388C140.302 925.818 169.754 1031.1 226.439 1126.69C283.123 1222.29 365.499 1305.6 467.106 1370.09Z" fill="#0170C2"/>
<path d="M1680.52 117.391H258.89C258.89 143.646 246.426 168.827 224.239 187.393C202.053 205.958 171.963 216.387 140.587 216.387V612.367C171.963 612.367 202.053 622.797 224.239 641.362C246.426 659.927 258.89 685.108 258.89 711.363H654.027C653.041 629.527 642.1 551.321 637.269 495.224C635.553 468.49 644.349 442.022 662.313 419.868C680.278 397.714 706.422 381.096 736.744 372.553C743.661 324.179 770.817 279.415 813.404 246.196C855.991 212.976 911.257 193.444 969.409 191.061C1035.01 197.046 1095.66 223.091 1139.72 264.199C1183.78 305.306 1208.15 358.581 1208.15 413.801C1208.15 469.02 1183.78 522.293 1139.72 563.4C1095.66 604.508 1035.01 630.553 969.409 636.538C957.978 636.465 946.572 635.638 935.297 634.063C934.836 661.562 935.133 687.11 936.184 710.703H1680.03C1680.03 684.448 1692.49 659.267 1714.68 640.702C1736.86 622.137 1766.95 611.707 1798.33 611.707V215.728C1766.95 215.728 1736.86 205.298 1714.68 186.733C1692.49 168.168 1680.03 142.987 1680.03 116.732L1680.52 117.391ZM436.644 500.587C416.198 500.554 396.223 495.45 379.242 485.922C362.261 476.393 349.034 462.866 341.236 447.05C333.439 431.235 331.42 413.84 335.433 397.064C339.445 380.288 349.312 364.883 363.783 352.797C378.254 340.711 396.68 332.485 416.735 329.16C436.791 325.834 457.577 327.557 476.463 334.112C495.349 340.667 511.486 351.759 522.841 365.987C534.196 380.214 540.258 396.939 540.258 414.047C540.258 425.426 537.576 436.691 532.367 447.201C527.157 457.711 519.522 467.26 509.898 475.297C500.274 483.335 488.85 489.707 476.279 494.046C463.709 498.385 450.241 500.608 436.644 500.587ZM1502.87 500.587C1482.42 500.554 1462.44 495.45 1445.46 485.922C1428.48 476.393 1415.26 462.866 1407.46 447.05C1399.66 431.235 1397.64 413.84 1401.65 397.064C1405.67 380.288 1415.53 364.883 1430.01 352.797C1444.48 340.711 1462.9 332.485 1482.96 329.16C1503.01 325.834 1523.8 327.557 1542.69 334.112C1561.57 340.667 1577.71 351.759 1589.06 365.987C1600.42 380.214 1606.48 396.939 1606.48 414.047C1606.48 425.426 1603.8 436.691 1598.59 447.201C1593.38 457.711 1585.74 467.26 1576.12 475.297C1566.5 483.335 1555.07 489.707 1542.5 494.046C1529.93 498.385 1516.46 500.608 1502.87 500.587Z" fill="#86CCFF"/>
<path d="M1502.77 521.376C1527.55 521.376 1551.78 515.227 1572.38 503.705C1592.99 492.184 1609.05 475.806 1618.53 456.647C1628.02 437.487 1630.5 416.406 1625.66 396.066C1620.83 375.727 1608.89 357.045 1591.37 342.381C1573.85 327.718 1551.52 317.732 1527.21 313.686C1502.91 309.64 1477.71 311.717 1454.81 319.653C1431.92 327.589 1412.35 341.027 1398.58 358.27C1384.81 375.513 1377.46 395.784 1377.46 416.522C1377.46 444.33 1390.66 471.001 1414.16 490.664C1437.66 510.328 1469.53 521.376 1502.77 521.376ZM1502.77 348.134C1518.83 348.134 1534.54 352.12 1547.9 359.589C1561.26 367.059 1571.67 377.676 1577.82 390.097C1583.97 402.518 1585.58 416.185 1582.44 429.371C1579.31 442.557 1571.57 454.67 1560.21 464.177C1548.85 473.684 1534.37 480.159 1518.61 482.782C1502.86 485.405 1486.52 484.057 1471.68 478.912C1456.84 473.767 1444.15 465.054 1435.22 453.875C1426.29 442.696 1421.53 429.556 1421.53 416.111C1421.53 407.184 1423.63 398.344 1427.71 390.097C1431.8 381.85 1437.78 374.355 1445.32 368.043C1452.87 361.731 1461.82 356.724 1471.68 353.308C1481.54 349.892 1492.1 348.134 1502.77 348.134Z" fill="#1F1D21"/>
<path d="M436.543 521.376C461.326 521.376 485.554 515.227 506.161 503.705C526.767 492.184 542.826 475.806 552.31 456.647C561.794 437.487 564.276 416.406 559.441 396.066C554.606 375.727 542.672 357.045 525.148 342.381C507.624 327.718 485.298 317.732 460.992 313.686C436.685 309.64 411.488 311.717 388.592 319.653C365.695 327.589 346.126 341.027 332.357 358.27C318.588 375.513 311.239 395.784 311.239 416.522C311.239 444.33 324.443 471.001 347.942 490.664C371.441 510.328 403.311 521.376 436.543 521.376ZM436.543 348.134C452.61 348.134 468.317 352.12 481.676 359.589C495.035 367.059 505.449 377.676 511.597 390.097C517.746 402.518 519.353 416.185 516.218 429.371C513.084 442.557 505.349 454.67 493.988 464.177C482.626 473.684 468.151 480.159 452.393 482.782C436.635 485.405 420.302 484.057 405.458 478.912C390.614 473.767 377.926 465.054 368.999 453.875C360.073 442.696 355.31 429.556 355.31 416.111C355.31 407.184 357.41 398.344 361.493 390.097C365.575 381.85 371.559 374.355 379.102 368.043C386.646 361.731 395.602 356.724 405.458 353.308C415.314 349.892 425.875 348.134 436.543 348.134Z" fill="#1F1D21"/>
<path d="M1917.13 0H22.1797C16.3047 0.0217052 10.6801 1.98434 6.52575 5.46062C2.3714 8.9369 0.0259389 13.6459 1.6885e-08 18.5621V814.401C-0.000229038 819.339 2.32925 824.076 6.48363 827.583C10.638 831.09 16.2786 833.083 22.1797 833.127H624.649C618.261 895.483 592.984 955.448 551.202 1007.36C333.127 1254.85 507.23 1602.98 514.722 1617.83C516.431 1621.19 519.288 1624.06 522.936 1626.07C526.584 1628.08 530.861 1629.14 535.229 1629.13C538.213 1629.14 541.168 1628.64 543.906 1627.65C549.258 1625.69 553.476 1622.05 555.652 1617.51C557.828 1612.97 557.785 1607.9 555.537 1603.39C553.763 1599.93 384.195 1260.21 586.891 1029.63C644.462 956.088 675.062 870.059 674.927 782.143C678.235 703.923 674.943 625.607 665.07 547.774C663.099 529.378 661.42 512.217 660.04 496.708C658.801 480.165 662.487 463.624 670.763 448.564C679.038 433.505 691.648 420.399 707.462 410.418C724.634 398.961 744.91 391.215 766.504 387.863C788.098 384.511 810.345 385.656 831.286 391.196C859.965 400.059 884.316 416.638 900.518 438.333C916.719 460.027 923.856 485.609 920.805 511.063C911.68 601.632 911.184 692.664 919.325 783.299C923.96 862.649 947.104 940.475 987.45 1012.39C988.765 1014.66 990.614 1016.68 992.886 1018.34C995.159 1019.99 997.807 1021.25 1000.67 1022.03C1003.54 1022.8 1006.56 1023.09 1009.57 1022.87C1012.57 1022.64 1015.48 1021.92 1018.14 1020.73C1020.8 1019.54 1023.14 1017.91 1025.03 1015.95C1026.92 1013.98 1028.31 1011.72 1029.13 1009.29C1029.94 1006.86 1030.16 1004.32 1029.78 1001.82C1029.39 999.321 1028.41 996.912 1026.88 994.737C997.606 944.227 978.837 889.907 971.381 834.116H1378.25C1461.85 1173.5 1083.38 1595.64 1079.33 1599.93C1075.74 1603.88 1074.17 1608.86 1074.96 1613.78C1075.76 1618.7 1078.86 1623.15 1083.57 1626.16C1085.88 1627.65 1088.52 1628.75 1091.34 1629.38C1094.16 1630.01 1097.1 1630.16 1099.99 1629.83C1102.88 1629.5 1105.66 1628.69 1108.17 1627.45C1110.69 1626.21 1112.88 1624.57 1114.63 1622.61C1130.99 1604.79 1504.24 1188.44 1423.7 834.199H1917.82C1920.75 834.188 1923.64 833.696 1926.34 832.749C1929.04 831.802 1931.49 830.419 1933.55 828.681C1935.61 826.942 1937.23 824.879 1938.34 822.613C1939.45 820.347 1940.01 817.922 1940 815.473V19.5515C1940.03 17.0932 1939.47 14.6554 1938.36 12.3789C1937.25 10.1024 1935.61 8.03364 1933.54 6.29142C1931.47 4.54921 1929 3.16879 1926.29 2.23057C1923.57 1.29235 1920.66 0.814741 1917.72 0.825765L1917.13 0ZM844.301 355.557C819.348 348.93 792.936 347.069 767.009 350.112C778.507 311.849 804.45 277.712 840.986 252.772C877.521 227.833 922.697 213.424 969.801 211.685C1029.09 218.448 1083.45 242.96 1122.8 280.682C1162.15 318.404 1183.83 366.78 1183.83 416.853C1183.83 466.925 1162.15 515.302 1122.8 553.024C1083.45 590.745 1029.09 615.257 969.801 622.02C966.078 622.101 962.355 621.935 958.663 621.524C959.649 586.958 961.422 551.238 964.873 513.538C968.609 479.74 958.81 445.862 937.019 417.233C915.227 388.604 882.68 366.85 844.497 355.394L844.301 355.557ZM1894.85 796.169H965.168C964.478 790.476 963.593 785.361 963.001 779.668C959.157 742.38 957.283 702.122 957.381 659.142C961.423 659.142 965.365 659.721 969.407 659.721C1040.64 653.022 1106.42 624.599 1154.19 579.881C1201.97 535.163 1228.37 477.286 1228.37 417.306C1228.37 357.326 1201.97 299.449 1154.19 254.731C1106.42 210.013 1040.64 181.59 969.407 174.891C908.075 177.113 849.535 196.959 803.652 231.086C757.768 265.213 727.347 311.533 717.517 362.239C703.727 367.272 690.744 373.73 678.871 381.461C657.46 395.327 640.423 413.361 629.237 433.992C618.052 454.624 613.058 477.228 614.69 499.842C616.071 515.434 617.747 532.841 619.817 551.485C629.556 627.587 632.851 704.17 629.677 780.66C629.677 786.188 628.689 791.301 628.196 797.158H43.3787V38.1967H1894.35L1894.85 796.169Z" fill="#1F1D21"/>
</svg>
