<svg width="3348" height="2099" viewBox="0 0 3348 2099" fill="none" xmlns="http://www.w3.org/2000/svg">
<g clip-path="url(#clip0_38_86)">
<mask id="mask0_38_86" style="mask-type:luminance" maskUnits="userSpaceOnUse" x="0" y="0" width="3348" height="2099">
<path d="M3348 0H0V2099H3348V0Z" fill="white"/>
</mask>
<g mask="url(#mask0_38_86)">
<path d="M3174.83 0H173.173C77.5319 0 0 100.688 0 224.893V1874.11C0 1998.31 77.5319 2099 173.173 2099H3174.83C3270.47 2099 3348 1998.31 3348 1874.11V224.893C3348 100.688 3270.47 0 3174.83 0Z" fill="white"/>
<path d="M1914.71 1053.55C1954.48 1267.94 1862.76 1517.35 1797.59 1658.96C1899.06 1621.58 1988.39 1542.25 2052.01 1433C2115.64 1323.75 2150.1 1190.53 2150.17 1053.55H1914.71Z" fill="#0170C2"/>
<path d="M1370.26 1554.23C1359.72 1442.93 1380.8 1330.45 1429.54 1237.88C1457.62 1183 1473.86 1119.35 1476.58 1053.55H1178.96C1178.91 1150.52 1196.15 1246.19 1229.34 1333.06C1262.53 1419.93 1310.76 1495.63 1370.26 1554.23Z" fill="#0170C2"/>
<path d="M2080.72 415.899H1248.34C1248.34 439.76 1241.04 462.64 1228.05 479.513C1215.06 496.381 1197.45 505.859 1179.07 505.859V865.689C1197.45 865.689 1215.06 875.166 1228.05 892.035C1241.04 908.903 1248.34 931.787 1248.34 955.644H1479.7C1479.12 881.282 1472.72 810.214 1469.89 759.239C1468.88 734.947 1474.03 710.893 1484.55 690.764C1495.07 670.63 1510.38 655.531 1528.13 647.767C1532.18 603.808 1548.08 563.131 1573.02 532.945C1597.95 502.759 1630.31 485.01 1664.36 482.846C1702.77 488.283 1738.28 511.951 1764.08 549.307C1789.88 586.658 1804.15 635.072 1804.15 685.251C1804.15 735.426 1789.88 783.836 1764.08 821.191C1738.28 858.543 1702.77 882.211 1664.36 887.652C1657.67 887.583 1650.99 886.831 1644.39 885.404C1644.12 910.391 1644.29 933.605 1644.91 955.045H2080.43C2080.43 931.188 2087.73 908.304 2100.72 891.436C2113.72 874.563 2131.33 865.089 2149.7 865.089V505.26C2131.33 505.26 2113.72 495.782 2100.72 478.914C2087.73 462.041 2080.43 439.161 2080.43 415.3L2080.72 415.899ZM1352.42 764.112C1340.45 764.08 1328.75 759.444 1318.81 750.786C1308.87 742.125 1301.12 729.837 1296.56 715.461C1291.99 701.09 1290.81 685.283 1293.16 670.039C1295.51 654.795 1301.28 640.798 1309.76 629.816C1318.23 618.831 1329.02 611.36 1340.76 608.336C1352.5 605.312 1364.68 606.88 1375.73 612.836C1386.79 618.791 1396.24 628.872 1402.89 641.799C1409.54 654.731 1413.09 669.927 1413.09 685.472C1413.09 695.814 1411.52 706.048 1408.47 715.602C1405.41 725.152 1400.94 733.826 1395.31 741.132C1389.68 748.434 1382.99 754.224 1375.63 758.169C1368.27 762.11 1360.38 764.132 1352.42 764.112ZM1976.71 764.112C1964.74 764.08 1953.04 759.444 1943.1 750.786C1933.15 742.125 1925.41 729.837 1920.85 715.461C1916.28 701.09 1915.1 685.283 1917.45 670.039C1919.79 654.795 1925.57 640.798 1934.05 629.816C1942.52 618.831 1953.31 611.36 1965.05 608.336C1976.79 605.312 1988.96 606.88 2000.02 612.836C2011.08 618.791 2020.53 628.872 2027.18 641.799C2033.82 654.731 2037.37 669.927 2037.37 685.472C2037.37 695.814 2035.8 706.048 2032.75 715.602C2029.7 725.152 2025.23 733.826 2019.6 741.132C2013.96 748.434 2007.27 754.224 1999.91 758.169C1992.55 762.11 1984.67 764.132 1976.71 764.112Z" fill="#86CCFF"/>
<path d="M1976.65 783.003C1991.16 783.003 2005.34 777.414 2017.41 766.947C2029.47 756.476 2038.88 741.594 2044.43 724.183C2049.98 706.772 2051.43 687.615 2048.6 669.135C2045.77 650.65 2038.79 633.677 2028.53 620.351C2018.27 607.025 2005.19 597.95 1990.96 594.274C1976.73 590.599 1961.97 592.485 1948.57 599.699C1935.16 606.909 1923.71 619.121 1915.64 634.787C1907.58 650.457 1903.28 668.877 1903.28 687.72C1903.28 712.992 1911.01 737.227 1924.77 755.097C1938.53 772.963 1957.19 783.003 1976.65 783.003ZM1976.65 625.578C1986.06 625.578 1995.25 629.201 2003.07 635.989C2010.9 642.776 2016.99 652.423 2020.59 663.71C2024.19 674.997 2025.13 687.414 2023.3 699.397C2021.46 711.38 2016.93 722.386 2010.28 731.027C2003.63 739.664 1995.15 745.547 1985.93 747.932C1976.7 750.316 1967.14 749.09 1958.45 744.417C1949.75 739.741 1942.33 731.823 1937.1 721.666C1931.87 711.505 1929.08 699.566 1929.08 687.35C1929.08 679.236 1930.31 671.205 1932.7 663.71C1935.09 656.215 1938.6 649.403 1943.02 643.669C1947.43 637.935 1952.68 633.383 1958.45 630.279C1964.22 627.175 1970.4 625.578 1976.65 625.578Z" fill="#1F1D21"/>
<path d="M1352.36 783.003C1366.87 783.003 1381.06 777.414 1393.12 766.947C1405.19 756.476 1414.59 741.594 1420.14 724.183C1425.7 706.772 1427.15 687.615 1424.32 669.135C1421.49 650.65 1414.5 633.677 1404.24 620.351C1393.98 607.025 1380.91 597.95 1366.68 594.274C1352.44 590.599 1337.69 592.485 1324.28 599.699C1310.88 606.909 1299.42 619.121 1291.36 634.787C1283.29 650.457 1278.99 668.877 1278.99 687.72C1278.99 712.992 1286.72 737.227 1300.48 755.097C1314.24 772.963 1332.9 783.003 1352.36 783.003ZM1352.36 625.578C1361.77 625.578 1370.96 629.201 1378.79 635.989C1386.61 642.776 1392.7 652.423 1396.3 663.71C1399.9 674.997 1400.85 687.414 1399.01 699.397C1397.18 711.38 1392.65 722.386 1385.99 731.027C1379.34 739.664 1370.87 745.547 1361.64 747.932C1352.41 750.316 1342.85 749.09 1334.16 744.417C1325.47 739.741 1318.04 731.823 1312.81 721.666C1307.59 711.505 1304.8 699.566 1304.8 687.35C1304.8 679.236 1306.03 671.205 1308.42 663.71C1310.81 656.215 1314.31 649.403 1318.73 643.669C1323.15 637.935 1328.39 633.383 1334.16 630.279C1339.93 627.175 1346.11 625.578 1352.36 625.578Z" fill="#1F1D21"/>
<path d="M2219.26 309.227H1109.75C1106.3 309.247 1103.01 311.031 1100.58 314.19C1098.15 317.348 1096.77 321.627 1096.76 326.095V1049.27C1096.76 1053.76 1098.12 1058.07 1100.56 1061.25C1102.99 1064.44 1106.29 1066.25 1109.75 1066.29H1462.5C1458.76 1122.96 1443.96 1177.45 1419.49 1224.62C1291.81 1449.51 1393.75 1765.86 1398.13 1779.35C1399.13 1782.41 1400.81 1785.01 1402.94 1786.84C1405.08 1788.67 1407.58 1789.63 1410.14 1789.62C1411.89 1789.63 1413.62 1789.18 1415.22 1788.28C1418.36 1786.49 1420.82 1783.18 1422.1 1779.06C1423.37 1774.94 1423.35 1770.33 1422.03 1766.23C1420.99 1763.08 1321.71 1454.38 1440.39 1244.86C1474.1 1178.03 1492.02 1099.85 1491.94 1019.96C1493.87 948.885 1491.95 877.72 1486.17 806.993C1485.01 790.273 1484.03 774.68 1483.22 760.586C1482.5 745.555 1484.65 730.524 1489.5 716.841C1494.34 703.153 1501.73 691.246 1510.99 682.175C1521.04 671.764 1532.91 664.723 1545.56 661.679C1558.2 658.632 1571.23 659.673 1583.49 664.707C1600.28 672.762 1614.54 687.829 1624.02 707.54C1633.51 727.255 1637.69 750.501 1635.9 773.63C1630.56 855.933 1630.27 938.655 1635.04 1021.01C1637.75 1093.12 1651.3 1163.84 1674.92 1229.19C1675.69 1231.25 1676.78 1233.09 1678.11 1234.59C1679.44 1236.1 1680.99 1237.24 1682.66 1237.94C1684.34 1238.65 1686.12 1238.91 1687.87 1238.71C1689.63 1238.51 1691.34 1237.84 1692.89 1236.77C1694.45 1235.68 1695.82 1234.2 1696.93 1232.42C1698.03 1230.63 1698.85 1228.57 1699.32 1226.37C1699.8 1224.17 1699.93 1221.86 1699.71 1219.59C1699.48 1217.31 1698.91 1215.12 1698.01 1213.15C1680.87 1167.25 1669.88 1117.89 1665.51 1067.19H1903.74C1952.69 1375.59 1731.09 1759.19 1728.72 1763.09C1726.62 1766.67 1725.7 1771.2 1726.16 1775.67C1726.63 1780.14 1728.44 1784.19 1731.2 1786.92C1732.55 1788.28 1734.1 1789.27 1735.75 1789.84C1737.4 1790.42 1739.12 1790.56 1740.82 1790.26C1742.51 1789.96 1744.14 1789.22 1745.61 1788.1C1747.08 1786.97 1748.36 1785.48 1749.39 1783.7C1758.97 1767.51 1977.51 1389.16 1930.35 1067.26H2219.67C2221.38 1067.26 2223.08 1066.81 2224.65 1065.95C2226.23 1065.09 2227.67 1063.83 2228.87 1062.25C2230.08 1060.67 2231.03 1058.8 2231.68 1056.74C2232.33 1054.68 2232.66 1052.48 2232.65 1050.25V326.994C2232.67 324.76 2232.34 322.545 2231.69 320.476C2231.04 318.407 2230.08 316.528 2228.87 314.944C2227.66 313.361 2226.21 312.107 2224.62 311.254C2223.03 310.402 2221.33 309.968 2219.61 309.978L2219.26 309.227ZM1591.11 632.322C1576.5 626.302 1561.03 624.609 1545.85 627.376C1552.59 592.606 1567.77 561.583 1589.17 538.924C1610.56 516.261 1637.01 503.165 1664.59 501.585C1699.31 507.733 1731.13 530.005 1754.17 564.285C1777.21 598.561 1789.91 642.523 1789.91 688.022C1789.91 733.524 1777.21 777.482 1754.17 811.762C1731.13 846.038 1699.31 868.314 1664.59 874.459C1662.41 874.531 1660.23 874.382 1658.07 874.008C1658.65 842.6 1659.68 810.137 1661.7 775.882C1663.89 745.169 1658.15 714.384 1645.4 688.367C1632.64 662.355 1613.58 642.583 1591.22 632.173L1591.11 632.322ZM2206.22 1032.71H1661.88C1661.47 1027.54 1660.95 1022.89 1660.61 1017.71C1658.36 983.832 1657.26 947.248 1657.32 908.191C1659.68 908.191 1661.99 908.718 1664.36 908.718C1706.07 902.63 1744.58 876.803 1772.56 836.166C1800.53 795.533 1815.99 742.937 1815.99 688.436C1815.99 633.93 1800.53 581.338 1772.56 540.702C1744.58 500.069 1706.07 474.237 1664.36 468.153C1628.45 470.172 1594.17 488.206 1567.31 519.217C1540.44 550.227 1522.63 592.32 1516.88 638.393C1508.8 642.969 1501.2 648.836 1494.25 655.861C1481.71 668.463 1471.73 684.849 1465.18 703.599C1458.64 722.345 1455.71 742.885 1456.67 763.437C1457.47 777.603 1458.46 793.422 1459.67 810.363C1465.37 879.517 1467.3 949.11 1465.44 1018.61C1465.44 1023.64 1464.87 1028.28 1464.58 1033.61H1122.16V343.937H2205.93L2206.22 1032.71Z" fill="#1F1D21"/>
</g>
</g>
<defs>
<clipPath id="clip0_38_86">
<rect width="3348" height="2099" fill="white"/>
</clipPath>
</defs>
</svg>
