<svg width="997" height="522" viewBox="0 0 997 522" fill="none" xmlns="http://www.w3.org/2000/svg">
<g clip-path="url(#clip0_36_86)">
<path d="M945.431 0H51.569C23.0882 0 0 25.0401 0 55.9286V466.071C0 496.96 23.0882 522 51.569 522H945.431C973.912 522 997 496.96 997 466.071V55.9286C997 25.0401 973.912 0 945.431 0Z" fill="white"/>
<path d="M570.181 262.007C582.024 315.325 554.71 377.35 535.303 412.566C565.522 403.271 592.122 383.543 611.069 356.372C630.017 329.202 640.278 296.073 640.298 262.007H570.181Z" fill="#0170C2"/>
<path d="M408.048 386.522C404.91 358.842 411.187 330.87 425.702 307.849C434.063 294.199 438.9 278.37 439.711 262.007H351.082C351.067 286.123 356.202 309.915 366.085 331.518C375.969 353.121 390.332 371.947 408.048 386.522Z" fill="#0170C2"/>
<path d="M619.618 103.43H371.743C371.743 109.364 369.57 115.054 365.702 119.25C361.833 123.445 356.587 125.802 351.116 125.802V215.288C356.587 215.288 361.833 217.645 365.702 221.84C369.57 226.035 371.743 231.726 371.743 237.659H440.639C440.468 219.166 438.56 201.492 437.718 188.815C437.418 182.774 438.952 176.792 442.084 171.786C445.216 166.779 449.775 163.024 455.062 161.093C456.268 150.161 461.003 140.045 468.428 132.538C475.854 125.031 485.49 120.617 495.629 120.079C507.068 121.431 517.643 127.317 525.325 136.607C533.008 145.896 537.256 157.936 537.256 170.415C537.256 182.893 533.008 194.932 525.325 204.222C517.643 213.511 507.068 219.397 495.629 220.75C493.636 220.733 491.647 220.546 489.682 220.191C489.601 226.405 489.653 232.178 489.836 237.51H619.532C619.532 231.577 621.706 225.886 625.574 221.691C629.443 217.495 634.689 215.139 640.16 215.139V125.653C634.689 125.653 629.443 123.296 625.574 119.101C621.706 114.905 619.532 109.215 619.532 103.281L619.618 103.43ZM402.737 190.027C399.172 190.019 395.689 188.866 392.728 186.713C389.767 184.559 387.461 181.503 386.101 177.928C384.742 174.354 384.39 170.423 385.089 166.632C385.789 162.841 387.509 159.36 390.033 156.629C392.556 153.897 395.768 152.039 399.265 151.287C402.762 150.535 406.387 150.925 409.679 152.406C412.972 153.887 415.786 156.394 417.766 159.609C419.746 162.825 420.803 166.604 420.803 170.47C420.803 173.042 420.335 175.587 419.427 177.963C418.518 180.338 417.187 182.495 415.509 184.312C413.831 186.128 411.839 187.568 409.647 188.549C407.456 189.529 405.107 190.032 402.737 190.027ZM588.643 190.027C585.078 190.019 581.595 188.866 578.634 186.713C575.673 184.559 573.367 181.503 572.008 177.928C570.648 174.354 570.296 170.423 570.996 166.632C571.695 162.841 573.416 159.36 575.939 156.629C578.462 153.897 581.675 152.039 585.171 151.287C588.668 150.535 592.293 150.925 595.586 152.406C598.878 153.887 601.692 156.394 603.672 159.609C605.652 162.825 606.709 166.604 606.709 170.47C606.709 173.042 606.241 175.587 605.333 177.963C604.425 180.338 603.093 182.495 601.415 184.312C599.737 186.128 597.745 187.568 595.554 188.549C593.362 189.529 591.014 190.032 588.643 190.027Z" fill="#86CCFF"/>
<path d="M588.626 194.725C592.947 194.725 597.171 193.335 600.764 190.732C604.356 188.128 607.157 184.427 608.81 180.097C610.464 175.767 610.896 171.003 610.053 166.407C609.21 161.81 607.13 157.589 604.074 154.275C601.019 150.961 597.126 148.704 592.888 147.79C588.65 146.876 584.256 147.345 580.264 149.139C576.272 150.932 572.86 153.969 570.459 157.865C568.058 161.762 566.777 166.343 566.777 171.029C566.777 177.314 569.079 183.341 573.177 187.785C577.274 192.228 582.831 194.725 588.626 194.725ZM588.626 155.575C591.427 155.575 594.165 156.476 596.494 158.164C598.824 159.852 600.639 162.251 601.711 165.058C602.783 167.865 603.064 170.953 602.518 173.933C601.971 176.913 600.622 179.65 598.641 181.799C596.66 183.947 594.136 185.41 591.389 186.003C588.641 186.596 585.793 186.291 583.205 185.129C580.617 183.966 578.405 181.997 576.848 179.471C575.292 176.944 574.461 173.975 574.461 170.937C574.461 168.919 574.827 166.922 575.539 165.058C576.251 163.194 577.294 161.5 578.61 160.074C579.925 158.648 581.487 157.516 583.205 156.744C584.924 155.972 586.766 155.575 588.626 155.575Z" fill="#1F1D21"/>
<path d="M402.719 194.725C407.04 194.725 411.265 193.335 414.857 190.732C418.45 188.128 421.25 184.427 422.904 180.097C424.558 175.767 424.99 171.003 424.147 166.407C423.304 161.81 421.224 157.589 418.168 154.275C415.113 150.961 411.22 148.704 406.982 147.79C402.744 146.876 398.35 147.345 394.358 149.139C390.366 150.932 386.954 153.969 384.553 157.865C382.152 161.762 380.871 166.343 380.871 171.029C380.871 177.314 383.173 183.341 387.27 187.785C391.368 192.228 396.925 194.725 402.719 194.725ZM402.719 155.575C405.52 155.575 408.259 156.476 410.588 158.164C412.918 159.852 414.733 162.251 415.805 165.058C416.877 167.865 417.158 170.953 416.611 173.933C416.065 176.913 414.716 179.65 412.735 181.799C410.754 183.947 408.23 185.41 405.483 186.003C402.735 186.596 399.887 186.291 397.299 185.129C394.711 183.966 392.498 181.997 390.942 179.471C389.386 176.944 388.555 173.975 388.555 170.937C388.555 168.919 388.921 166.922 389.633 165.058C390.345 163.194 391.388 161.5 392.704 160.074C394.019 158.648 395.581 157.516 397.299 156.744C399.018 155.972 400.859 155.575 402.719 155.575Z" fill="#1F1D21"/>
<path d="M660.873 76.9017H330.471C329.446 76.9066 328.466 77.3502 327.741 78.1358C327.017 78.9213 326.608 79.9855 326.603 81.0965V260.944C326.603 262.06 327.01 263.131 327.734 263.923C328.458 264.716 329.442 265.166 330.471 265.176H435.517C434.403 279.268 429.996 292.819 422.711 304.55C384.687 360.478 415.044 439.151 416.35 442.507C416.648 443.267 417.146 443.915 417.782 444.369C418.418 444.824 419.164 445.064 419.926 445.061C420.446 445.063 420.961 444.95 421.439 444.726C422.372 444.283 423.107 443.46 423.487 442.435C423.866 441.41 423.859 440.264 423.467 439.244C423.157 438.461 393.592 361.69 428.934 309.583C438.972 292.964 444.307 273.522 444.283 253.654C444.86 235.978 444.286 218.28 442.565 200.691C442.221 196.533 441.928 192.655 441.688 189.15C441.472 185.412 442.114 181.674 443.557 178.271C445 174.867 447.199 171.906 449.956 169.65C452.951 167.061 456.486 165.31 460.251 164.553C464.016 163.795 467.895 164.054 471.546 165.306C476.547 167.309 480.793 171.056 483.617 175.958C486.442 180.861 487.687 186.642 487.155 192.394C485.564 212.862 485.477 233.434 486.897 253.916C487.705 271.848 491.74 289.435 498.775 305.687C499.004 306.2 499.327 306.657 499.723 307.031C500.119 307.405 500.581 307.688 501.08 307.864C501.58 308.04 502.108 308.105 502.631 308.054C503.154 308.004 503.663 307.839 504.126 307.571C504.589 307.302 504.998 306.934 505.327 306.49C505.656 306.046 505.899 305.534 506.041 304.986C506.184 304.438 506.222 303.864 506.155 303.299C506.088 302.733 505.917 302.189 505.651 301.698C500.546 290.283 497.273 278.007 495.973 265.4H566.915C581.491 342.096 515.501 437.492 514.796 438.462C514.169 439.354 513.895 440.48 514.034 441.591C514.172 442.703 514.712 443.71 515.535 444.39C515.937 444.727 516.397 444.974 516.889 445.116C517.38 445.259 517.893 445.294 518.397 445.219C518.901 445.145 519.386 444.962 519.824 444.682C520.263 444.402 520.645 444.03 520.95 443.588C523.803 439.561 588.883 345.471 574.839 265.418H660.994C661.504 265.416 662.009 265.305 662.479 265.091C662.949 264.877 663.377 264.564 663.736 264.171C664.095 263.778 664.379 263.312 664.572 262.8C664.765 262.288 664.863 261.74 664.861 261.187V81.3201C664.866 80.7645 664.769 80.2136 664.575 79.6992C664.382 79.1847 664.096 78.7172 663.735 78.3235C663.373 77.9298 662.944 77.6178 662.47 77.4058C661.997 77.1938 661.489 77.0859 660.977 77.0883L660.873 76.9017ZM473.816 157.252C469.465 155.755 464.86 155.334 460.339 156.022C462.344 147.375 466.867 139.66 473.238 134.025C479.608 128.389 487.485 125.132 495.698 124.739C506.036 126.268 515.513 131.807 522.374 140.332C529.236 148.856 533.016 159.789 533.016 171.104C533.016 182.42 529.236 193.352 522.374 201.877C515.513 210.401 506.036 215.941 495.698 217.469C495.048 217.487 494.399 217.45 493.756 217.357C493.928 209.546 494.237 201.473 494.838 192.954C495.49 185.316 493.781 177.66 489.982 171.19C486.182 164.721 480.507 159.804 473.85 157.215L473.816 157.252ZM656.989 256.824H494.89C494.769 255.538 494.615 254.382 494.512 253.095C493.842 244.669 493.515 235.571 493.532 225.858C494.237 225.858 494.924 225.989 495.629 225.989C508.049 224.475 519.519 218.052 527.849 207.946C536.178 197.841 540.782 184.761 540.782 171.207C540.782 157.652 536.178 144.573 527.849 134.467C519.519 124.362 508.049 117.938 495.629 116.425C484.935 116.927 474.728 121.412 466.728 129.124C458.728 136.836 453.423 147.304 451.71 158.762C449.305 159.9 447.041 161.359 444.971 163.106C441.238 166.24 438.267 170.315 436.317 174.978C434.367 179.64 433.496 184.748 433.781 189.859C434.021 193.382 434.314 197.316 434.675 201.529C436.373 218.727 436.947 236.034 436.394 253.319C436.394 254.568 436.222 255.724 436.136 257.048H334.167V85.5336H656.903L656.989 256.824Z" fill="#1F1D21"/>
</g>
<defs>
<clipPath id="clip0_36_86">
<rect width="997" height="522" fill="white"/>
</clipPath>
</defs>
</svg>
